<svg width="35" height="35" viewBox="0 0 35 35" fill="none" xmlns="http://www.w3.org/2000/svg">
<path d="M33.3862 17.0788C33.3889 19.1967 32.9719 21.294 32.1593 23.2498C31.3467 25.2055 30.1545 26.9808 28.6518 28.4731C27.1613 29.9609 25.3923 31.1405 23.4457 31.9443C21.4992 32.7481 19.4133 33.1604 17.3074 33.1577C8.42702 33.1577 1.22853 25.9592 1.22853 17.0788C1.22291 12.956 2.80656 8.98971 5.65021 6.00455C7.15064 4.42126 8.95836 3.1608 10.9628 2.30029C12.9671 1.43979 15.1261 0.997334 17.3074 1.00001C19.4133 0.997286 21.4992 1.40961 23.4457 2.21341C25.3923 3.01722 27.1613 4.19674 28.6518 5.68458C30.1545 7.17688 31.3467 8.95218 32.1593 10.9079C32.9719 12.8636 33.3889 14.961 33.3862 17.0788V17.0788Z" stroke="white" stroke-width="1.92946" stroke-linecap="round" stroke-linejoin="round"/>
<path d="M33.386 17.079C31.0401 17.079 24.5684 16.1947 18.776 18.7375C12.4836 21.5007 7.92763 25.7865 5.94189 28.4523" stroke="white" stroke-width="1.92946" stroke-linecap="round" stroke-linejoin="round"/>
<path d="M11.2778 2.16895C13.7942 4.49153 19.2851 10.4045 21.3271 16.2749C23.3691 22.1453 24.1248 29.3631 24.5911 31.4171" stroke="white" stroke-width="1.92946" stroke-linecap="round" stroke-linejoin="round"/>
<path d="M1.35254 15.0692C4.38983 15.2525 12.43 15.4173 17.5753 13.2201C22.7205 11.0229 27.1478 6.9815 28.6664 5.69922M2.43464 23.1994C3.85144 26.6289 6.40668 29.4655 9.67011 31.2316" stroke="white" stroke-width="1.92946" stroke-linecap="round" stroke-linejoin="round"/>
<path d="M1.22853 17.0788C1.22291 12.956 2.80656 8.98971 5.65021 6.00455M17.3074 1.00001C15.1261 0.997333 12.9671 1.43978 10.9628 2.30029C8.95836 3.1608 7.15064 4.42126 5.65021 6.00455M23.7389 2.33777C25.57 3.13893 27.236 4.27385 28.6518 5.68458C30.1545 7.17687 31.3467 8.95218 32.1593 10.9079C32.9719 12.8636 33.3889 14.961 33.3862 17.0788C33.3862 19.0581 33.0284 20.9546 32.3732 22.7064M17.3074 33.1577C19.4133 33.1604 21.4992 32.7481 23.4457 31.9443C25.3923 31.1405 27.1613 29.9609 28.6518 28.4731" stroke="white" stroke-width="1.92946" stroke-linecap="round" stroke-linejoin="round"/>
</svg>
