<svg width="33" height="32" viewBox="0 0 33 32" fill="none" xmlns="http://www.w3.org/2000/svg">
<path d="M16.5354 0.389648C14.4239 0.389648 12.3331 0.80554 10.3823 1.61358C8.4315 2.42161 6.65898 3.60597 5.16593 5.09903C2.15056 8.1144 0.456543 12.2041 0.456543 16.4685C0.456543 23.5753 5.07117 29.6049 11.4545 31.7434C12.2584 31.872 12.5157 31.3736 12.5157 30.9394V28.2221C8.06183 29.1868 7.11318 26.0676 7.11318 26.0676C6.37356 24.2024 5.32843 23.704 5.32843 23.704C3.86526 22.7071 5.44098 22.7392 5.44098 22.7392C7.04887 22.8518 7.90105 24.3954 7.90105 24.3954C9.2999 26.8393 11.6635 26.1158 12.58 25.7299C12.7247 24.6848 13.1427 23.9773 13.593 23.5753C10.0235 23.1734 6.27708 21.7906 6.27708 15.6645C6.27708 13.8798 6.88808 12.4488 7.9332 11.3072C7.77241 10.9052 7.20965 9.23301 8.09399 7.06237C8.09399 7.06237 9.44461 6.62824 12.5157 8.70241C13.7859 8.34867 15.1687 8.17181 16.5354 8.17181C17.9021 8.17181 19.2849 8.34867 20.5551 8.70241C23.6261 6.62824 24.9768 7.06237 24.9768 7.06237C25.8611 9.23301 25.2983 10.9052 25.1376 11.3072C26.1827 12.4488 26.7937 13.8798 26.7937 15.6645C26.7937 21.8067 23.0312 23.1573 19.4457 23.5593C20.0245 24.0577 20.5551 25.0385 20.5551 26.5338V30.9394C20.5551 31.3736 20.8124 31.8881 21.6324 31.7434C28.0157 29.5888 32.6142 23.5753 32.6142 16.4685C32.6142 14.357 32.1983 12.2662 31.3903 10.3154C30.5823 8.36461 29.3979 6.59209 27.9048 5.09903C26.4118 3.60597 24.6393 2.42161 22.6885 1.61358C20.7377 0.80554 18.6469 0.389648 16.5354 0.389648V0.389648Z" fill="white"/>
</svg>
