<svg width="33" height="33" viewBox="0 0 33 33" fill="none" xmlns="http://www.w3.org/2000/svg">
<path d="M16.0788 8.361C14.5524 8.361 13.0602 8.81364 11.791 9.66169C10.5218 10.5097 9.53263 11.7151 8.94848 13.1253C8.36434 14.5356 8.2115 16.0874 8.50929 17.5845C8.80709 19.0816 9.54214 20.4568 10.6215 21.5362C11.7009 22.6155 13.076 23.3506 14.5732 23.6484C16.0703 23.9462 17.6221 23.7933 19.0323 23.2092C20.4426 22.6251 21.6479 21.6358 22.496 20.3666C23.344 19.0975 23.7967 17.6053 23.7967 16.0788C23.7967 14.0319 22.9836 12.0689 21.5362 10.6215C20.0888 9.17412 18.1257 8.361 16.0788 8.361ZM16.0788 21.2241C15.0612 21.2241 14.0664 20.9223 13.2203 20.3569C12.3742 19.7916 11.7147 18.988 11.3253 18.0478C10.9358 17.1077 10.8339 16.0731 11.0325 15.0751C11.231 14.077 11.721 13.1602 12.4406 12.4406C13.1602 11.721 14.077 11.231 15.0751 11.0325C16.0731 10.8339 17.1077 10.9358 18.0478 11.3253C18.988 11.7147 19.7916 12.3742 20.3569 13.2203C20.9223 14.0664 21.2241 15.0612 21.2241 16.0788C21.2198 17.4421 20.6764 18.7484 19.7124 19.7124C18.7484 20.6764 17.4421 21.2198 16.0788 21.2241ZM23.1535 0H9.00415C6.6161 0 4.32586 0.948649 2.63725 2.63725C0.948649 4.32586 0 6.6161 0 9.00415V23.1535C0 25.5416 0.948649 27.8318 2.63725 29.5204C4.32586 31.209 6.6161 32.1577 9.00415 32.1577H23.1535C25.5416 32.1577 27.8318 31.209 29.5204 29.5204C31.209 27.8318 32.1577 25.5416 32.1577 23.1535V9.00415C32.1577 6.6161 31.209 4.32586 29.5204 2.63725C27.8318 0.948649 25.5416 0 23.1535 0V0ZM29.5851 23.1535C29.5851 23.9981 29.4187 24.8345 29.0955 25.6148C28.7723 26.3951 28.2985 27.1041 27.7013 27.7013C27.1041 28.2985 26.3951 28.7723 25.6148 29.0955C24.8345 29.4187 23.9981 29.5851 23.1535 29.5851H9.00415C8.15955 29.5851 7.32322 29.4187 6.54291 29.0955C5.7626 28.7723 5.05359 28.2985 4.45637 27.7013C3.85914 27.1041 3.3854 26.3951 3.06219 25.6148C2.73897 24.8345 2.57261 23.9981 2.57261 23.1535V9.00415C2.57261 7.2984 3.25022 5.66251 4.45637 4.45637C5.66251 3.25022 7.2984 2.57261 9.00415 2.57261H23.1535C23.9981 2.57261 24.8345 2.73897 25.6148 3.06219C26.3951 3.3854 27.1041 3.85914 27.7013 4.45637C28.2985 5.05359 28.7723 5.7626 29.0955 6.54291C29.4187 7.32322 29.5851 8.15955 29.5851 9.00415V23.1535ZM26.3693 7.71784C26.3693 8.09945 26.2561 8.47249 26.0441 8.78979C25.8321 9.10709 25.5308 9.3544 25.1782 9.50043C24.8256 9.64647 24.4377 9.68468 24.0634 9.61023C23.6891 9.53578 23.3453 9.35202 23.0755 9.08218C22.8057 8.81234 22.6219 8.46854 22.5474 8.09426C22.473 7.71998 22.5112 7.33203 22.6572 6.97947C22.8033 6.62691 23.0506 6.32557 23.3679 6.11355C23.6852 5.90154 24.0582 5.78838 24.4398 5.78838C24.9516 5.78838 25.4423 5.99166 25.8042 6.35351C26.166 6.71535 26.3693 7.20612 26.3693 7.71784Z" fill="white"/>
</svg>
