<svg width="33" height="27" viewBox="0 0 33 27" fill="none" xmlns="http://www.w3.org/2000/svg">
<path d="M32.8425 3.08704C31.6589 3.62505 30.383 3.9786 29.061 4.14769C30.4138 3.33299 31.459 2.04177 31.9509 0.489219C30.6751 1.25781 29.2609 1.79582 27.7698 2.10325C26.5555 0.781283 24.8492 0.0126953 22.9124 0.0126953C19.3 0.0126953 16.3486 2.96407 16.3486 6.60717C16.3486 7.12981 16.4101 7.63708 16.5177 8.1136C11.0454 7.83691 6.17253 5.20834 2.92909 1.22706C2.36033 2.19548 2.03753 3.33299 2.03753 4.53199C2.03753 6.82238 3.19041 8.85145 4.97353 10.0043C3.88214 10.0043 2.8676 9.69689 1.97604 9.23574V9.28185C1.97604 12.4792 4.25106 15.1539 7.26392 15.7534C6.29662 16.0181 5.28111 16.0549 4.29717 15.861C4.71468 17.1714 5.53235 18.318 6.63524 19.1396C7.73813 19.9613 9.07079 20.4167 10.4459 20.4417C8.11494 22.287 5.22562 23.2845 2.25273 23.2701C1.73009 23.2701 1.20745 23.2394 0.684814 23.1779C3.60544 25.0533 7.07946 26.1447 10.7994 26.1447C22.9124 26.1447 29.5683 16.0915 29.5683 7.37576C29.5683 7.0837 29.5683 6.807 29.5529 6.51494C30.8442 5.59264 31.9509 4.42439 32.8425 3.08704V3.08704Z" fill="white"/>
</svg>
